<svg xmlns="http://www.w3.org/2000/svg" width="224" height="224" fill="none" viewBox="0 0 224 224">
  <path fill="#51C978" d="M6.054 0H0v6.054h6.054V0Zm6.054 0H6.054v6.054h6.054V0Z"/>
  <path fill="#51C978" d="M18.162 0h-6.054v6.054h6.054V0Zm6.054 0h-6.054v6.054h6.054V0Zm6.054 0h-6.054v6.054h6.054V0Z"/>
  <path fill="#51C978" d="M36.324 0H30.27v6.054h6.054V0Zm6.054 0h-6.054v6.054h6.054V0Zm24.217 0H60.54v6.054h6.054V0Zm18.162 0h-6.054v6.054h6.054V0Zm6.053 0h-6.053v6.054h6.054V0Zm30.271 0h-6.054v6.054h6.054V0Zm6.054 0h-6.054v6.054h6.054V0Zm18.162 0h-6.054v6.054h6.054V0Zm6.054 0h-6.054v6.054h6.054V0Zm18.163 0h-6.055v6.054h6.055V0Zm18.162 0h-6.054v6.054h6.054V0Zm6.054 0h-6.054v6.054h6.054V0Zm6.054 0h-6.054v6.054h6.054V0Zm6.054 0h-6.054v6.054h6.054V0Zm6.054 0h-6.054v6.054h6.054V0Zm6.054 0h-6.054v6.054h6.054V0ZM224 0h-6.054v6.054H224V0ZM6.054 6.054H0v6.054h6.054V6.054Zm36.324 0h-6.054v6.054h6.054V6.054Zm12.108 0h-6.054v6.054h6.054V6.054Zm30.271 0h-6.054v6.054h6.054V6.054Zm6.053 0h-6.053v6.054h6.054V6.054Zm18.163 0h-6.054v6.054h6.054V6.054Zm6.054 0h-6.054v6.054h6.054V6.054Zm18.162 0h-6.054v6.054h6.054V6.054Zm6.054 0h-6.054v6.054h6.054V6.054Zm18.162 0h-6.054v6.054h6.054V6.054Zm6.054 0h-6.054v6.054h6.054V6.054Zm24.217 0h-6.054v6.054h6.054V6.054Zm36.324 0h-6.054v6.054H224V6.054Z"/>
  <path fill="#51C978" d="M6.054 12.108H0v6.054h6.054v-6.054Zm12.108 0h-6.054v6.054h6.054v-6.054Zm6.054 0h-6.054v6.054h6.054v-6.054Zm6.054 0h-6.054v6.054h6.054v-6.054Zm12.108 0h-6.054v6.054h6.054v-6.054Zm12.108 0h-6.054v6.054h6.054v-6.054Zm6.054 0h-6.053v6.054h6.053v-6.054Zm6.055 0H60.54v6.054h6.054v-6.054Zm12.108 0h-6.054v6.054h6.054v-6.054Zm12.107 0h-6.053v6.054h6.054v-6.054Z"/>
  <path fill="#51C978" d="M96.865 12.108H90.81v6.054h6.054v-6.054Zm12.108 0h-6.054v6.054h6.054v-6.054Zm6.054 0h-6.054v6.054h6.054v-6.054Zm12.108 0h-6.054v6.054h6.054v-6.054Z"/>
  <path fill="#51C978" d="M133.189 12.108h-6.054v6.054h6.054v-6.054Zm12.108 0h-6.054v6.054h6.054v-6.054Zm12.108 0h-6.054v6.054h6.054v-6.054Zm6.054 0h-6.054v6.054h6.054v-6.054Zm12.109 0h-6.054v6.054h6.054v-6.054Zm12.108 0h-6.054v6.054h6.054v-6.054Zm12.108 0h-6.054v6.054h6.054v-6.054Zm6.054 0h-6.054v6.054h6.054v-6.054Zm6.054 0h-6.054v6.054h6.054v-6.054Zm12.108 0h-6.054v6.054H224v-6.054ZM6.054 18.162H0v6.054h6.054v-6.054Zm12.108 0h-6.054v6.054h6.054v-6.054Zm6.054 0h-6.054v6.054h6.054v-6.054Zm6.054 0h-6.054v6.054h6.054v-6.054Zm12.108 0h-6.054v6.054h6.054v-6.054Zm12.108 0h-6.054v6.054h6.054v-6.054Zm6.054 0h-6.053v6.054h6.053v-6.054Zm30.27 0h-6.053v6.054h6.054v-6.054Z"/>
  <path fill="#51C978" d="M96.865 18.162H90.81v6.054h6.054v-6.054Zm6.054 0h-6.054v6.054h6.054v-6.054Zm6.054 0h-6.054v6.054h6.054v-6.054Zm18.162 0h-6.054v6.054h6.054v-6.054Zm12.108 0h-6.054v6.054h6.054v-6.054Zm18.162 0h-6.054v6.054h6.054v-6.054Zm12.109 0h-6.055v6.054h6.055v-6.054Zm6.054 0h-6.054v6.054h6.054v-6.054Zm12.108 0h-6.054v6.054h6.054v-6.054Zm12.108 0h-6.054v6.054h6.054v-6.054Zm6.054 0h-6.054v6.054h6.054v-6.054Zm6.054 0h-6.054v6.054h6.054v-6.054Zm12.108 0h-6.054v6.054H224v-6.054ZM6.054 24.216H0v6.054h6.054v-6.054Zm12.108 0h-6.054v6.054h6.054v-6.054Zm6.054 0h-6.054v6.054h6.054v-6.054Zm6.054 0h-6.054v6.054h6.054v-6.054Zm12.108 0h-6.054v6.054h6.054v-6.054Zm18.162 0h-6.053v6.054h6.053v-6.054Zm6.055 0H60.54v6.054h6.054v-6.054Zm6.054 0h-6.054v6.054h6.054v-6.054Zm18.161 0h-6.053v6.054h6.054v-6.054Zm24.217 0h-6.054v6.054h6.054v-6.054Zm12.108 0h-6.054v6.054h6.054v-6.054Z"/>
  <path fill="#51C978" d="M133.189 24.216h-6.054v6.054h6.054v-6.054Zm6.054 0h-6.054v6.054h6.054v-6.054Zm30.271 0h-6.055v6.054h6.055v-6.054Zm18.162 0h-6.054v6.054h6.054v-6.054Zm12.108 0h-6.054v6.054h6.054v-6.054Zm6.054 0h-6.054v6.054h6.054v-6.054Zm6.054 0h-6.054v6.054h6.054v-6.054Zm12.108 0h-6.054v6.054H224v-6.054ZM6.054 30.27H0v6.054h6.054V30.27Zm36.324 0h-6.054v6.054h6.054V30.27Zm12.108 0h-6.054v6.054h6.054V30.27Zm6.054 0h-6.053v6.054h6.053V30.27Zm6.055 0H60.54v6.054h6.054V30.27Zm6.054 0h-6.054v6.054h6.054V30.27Zm12.108 0h-6.054v6.054h6.054V30.27Zm6.053 0h-6.053v6.054h6.054V30.27Z"/>
  <path fill="#51C978" d="M96.865 30.27H90.81v6.054h6.054V30.27Zm12.108 0h-6.054v6.054h6.054V30.27Zm12.108 0h-6.054v6.054h6.054V30.27Zm6.054 0h-6.054v6.054h6.054V30.27Z"/>
  <path fill="#51C978" d="M133.189 30.27h-6.054v6.054h6.054V30.27Zm6.054 0h-6.054v6.054h6.054V30.27Zm6.054 0h-6.054v6.054h6.054V30.27Zm12.108 0h-6.054v6.054h6.054V30.27Zm12.109 0h-6.055v6.054h6.055V30.27Zm18.162 0h-6.054v6.054h6.054V30.27Zm36.324 0h-6.054v6.054H224V30.27ZM6.054 36.324H0v6.054h6.054v-6.054Zm6.054 0H6.054v6.054h6.054v-6.054Z"/>
  <path fill="#51C978" d="M18.162 36.324h-6.054v6.054h6.054v-6.054Zm6.054 0h-6.054v6.054h6.054v-6.054Zm6.054 0h-6.054v6.054h6.054v-6.054Z"/>
  <path fill="#51C978" d="M36.324 36.324H30.27v6.054h6.054v-6.054Zm6.054 0h-6.054v6.054h6.054v-6.054Zm12.108 0h-6.054v6.054h6.054v-6.054Zm12.109 0H60.54v6.054h6.054v-6.054Zm12.108 0h-6.054v6.054h6.054v-6.054Zm12.107 0h-6.053v6.054h6.054v-6.054Zm12.109 0h-6.054v6.054h6.054v-6.054Zm12.108 0h-6.054v6.054h6.054v-6.054Zm12.108 0h-6.054v6.054h6.054v-6.054Zm12.108 0h-6.054v6.054h6.054v-6.054Zm12.108 0h-6.054v6.054h6.054v-6.054Zm12.108 0h-6.054v6.054h6.054v-6.054Zm12.109 0h-6.054v6.054h6.054v-6.054Zm12.108 0h-6.054v6.054h6.054v-6.054Zm6.054 0h-6.054v6.054h6.054v-6.054Zm6.054 0h-6.054v6.054h6.054v-6.054Zm6.054 0h-6.054v6.054h6.054v-6.054Zm6.054 0h-6.054v6.054h6.054v-6.054Zm6.054 0h-6.054v6.054h6.054v-6.054Zm6.054 0h-6.054v6.054H224v-6.054ZM60.54 42.378h-6.053v6.054h6.053v-6.054Zm6.055 0H60.54v6.054h6.054v-6.054Zm12.108 0h-6.054v6.054h6.054v-6.054Zm6.054 0h-6.054v6.054h6.054v-6.054Zm12.108 0H90.81v6.054h6.054v-6.054Zm6.054 0h-6.054v6.054h6.054v-6.054Zm6.054 0h-6.054v6.054h6.054v-6.054Zm6.054 0h-6.054v6.054h6.054v-6.054Zm6.054 0h-6.054v6.054h6.054v-6.054Zm30.27 0h-6.054v6.054h6.054v-6.054Zm6.054 0h-6.054v6.054h6.054v-6.054Zm12.109 0h-6.055v6.054h6.055v-6.054ZM12.108 48.432H6.054v6.054h6.054v-6.054Z"/>
  <path fill="#51C978" d="M18.162 48.432h-6.054v6.054h6.054v-6.054Zm24.216 0h-6.054v6.054h6.054v-6.054Zm24.217 0H60.54v6.054h6.054v-6.054Zm12.108 0h-6.054v6.054h6.054v-6.054Zm6.054 0h-6.054v6.054h6.054v-6.054Zm12.108 0H90.81v6.054h6.054v-6.054Zm6.054 0h-6.054v6.054h6.054v-6.054Zm6.054 0h-6.054v6.054h6.054v-6.054Zm24.216 0h-6.054v6.054h6.054v-6.054Zm6.054 0h-6.054v6.054h6.054v-6.054Zm12.108 0h-6.054v6.054h6.054v-6.054Zm18.163 0h-6.055v6.054h6.055v-6.054Zm6.054 0h-6.054v6.054h6.054v-6.054Zm6.054 0h-6.054v6.054h6.054v-6.054Zm12.108 0h-6.054v6.054h6.054v-6.054Zm12.108 0h-6.054v6.054h6.054v-6.054Zm6.054 0h-6.054v6.054h6.054v-6.054Zm6.054 0h-6.054v6.054h6.054v-6.054ZM6.054 54.486H0v6.055h6.054v-6.054Z"/>
  <path fill="#51C978" d="M12.108 54.486H6.054v6.055h6.054v-6.054Z"/>
  <path fill="#51C978" d="M18.162 54.486h-6.054v6.055h6.054v-6.054Zm42.378 0h-6.053v6.055h6.053v-6.054Zm6.055 0H60.54v6.055h6.054v-6.054Zm6.054 0h-6.054v6.055h6.054v-6.054Zm12.108 0h-6.054v6.055h6.054v-6.054Zm36.324 0h-6.054v6.055h6.054v-6.054Zm30.27 0h-6.054v6.055h6.054v-6.054Zm12.108 0h-6.054v6.055h6.054v-6.054Zm24.217 0h-6.054v6.055h6.054v-6.054Zm12.108 0h-6.054v6.055h6.054v-6.054Zm18.162 0h-6.054v6.055h6.054v-6.054Z"/>
  <path fill="#51C978" d="M12.108 60.54H6.054v6.055h6.054V60.54Zm24.216 0H30.27v6.055h6.054V60.54Zm6.054 0h-6.054v6.055h6.054V60.54Zm18.162 0h-6.053v6.055h6.053V60.54Zm6.055 0H60.54v6.055h6.054V60.54Zm18.162 0h-6.054v6.055h6.054V60.54Zm6.053 0h-6.053v6.055h6.054V60.54Z"/>
  <path fill="#51C978" d="M96.865 60.54H90.81v6.055h6.054V60.54Zm6.054 0h-6.054v6.055h6.054V60.54Zm18.162 0h-6.054v6.055h6.054V60.54Zm6.054 0h-6.054v6.055h6.054V60.54Zm6.054 0h-6.054v6.055h6.054V60.54Zm12.108 0h-6.054v6.055h6.054V60.54Zm6.054 0h-6.054v6.055h6.054V60.54Zm6.054 0h-6.054v6.055h6.054V60.54Zm30.271 0h-6.054v6.055h6.054V60.54Zm6.054 0h-6.054v6.055h6.054V60.54Zm30.27 0h-6.054v6.055H224V60.54ZM6.054 66.595H0v6.054h6.054v-6.054Zm12.108 0h-6.054v6.054h6.054v-6.054Zm6.054 0h-6.054v6.054h6.054v-6.054Zm6.054 0h-6.054v6.054h6.054v-6.054Zm18.162 0h-6.054v6.054h6.054v-6.054Zm12.108 0h-6.053v6.054h6.053v-6.054Zm6.055 0H60.54v6.054h6.054v-6.054Zm6.054 0h-6.054v6.054h6.054v-6.054Zm24.216 0H90.81v6.054h6.054v-6.054Zm6.054 0h-6.054v6.054h6.054v-6.054Zm30.27 0h-6.054v6.054h6.054v-6.054Zm6.054 0h-6.054v6.054h6.054v-6.054Zm48.433 0h-6.054v6.054h6.054v-6.054ZM12.108 72.649H6.054v6.054h6.054v-6.054Z"/>
  <path fill="#51C978" d="M18.162 72.649h-6.054v6.054h6.054v-6.054Zm12.108 0h-6.054v6.054h6.054v-6.054Z"/>
  <path fill="#51C978" d="M36.324 72.649H30.27v6.054h6.054v-6.054Zm6.054 0h-6.054v6.054h6.054v-6.054Zm12.108 0h-6.054v6.054h6.054v-6.054Zm6.054 0h-6.053v6.054h6.053v-6.054Zm6.055 0H60.54v6.054h6.054v-6.054Zm12.108 0h-6.054v6.054h6.054v-6.054Zm6.054 0h-6.054v6.054h6.054v-6.054Zm24.216 0h-6.054v6.054h6.054v-6.054Zm6.054 0h-6.054v6.054h6.054v-6.054Zm6.054 0h-6.054v6.054h6.054v-6.054Zm6.054 0h-6.054v6.054h6.054v-6.054Z"/>
  <path fill="#51C978" d="M133.189 72.649h-6.054v6.054h6.054v-6.054Zm6.054 0h-6.054v6.054h6.054v-6.054Zm6.054 0h-6.054v6.054h6.054v-6.054Zm6.054 0h-6.054v6.054h6.054v-6.054Zm18.163 0h-6.055v6.054h6.055v-6.054Zm18.162 0h-6.054v6.054h6.054v-6.054Zm6.054 0h-6.054v6.054h6.054v-6.054Zm18.162 0h-6.054v6.054h6.054v-6.054ZM12.108 78.703H6.054v6.054h6.054v-6.054Z"/>
  <path fill="#51C978" d="M18.162 78.703h-6.054v6.054h6.054v-6.054Zm12.108 0h-6.054v6.054h6.054v-6.054Zm18.162 0h-6.054v6.054h6.054v-6.054Z"/>
  <path fill="#51C978" d="M54.486 78.703h-6.054v6.054h6.054v-6.054Zm6.054 0h-6.053v6.054h6.053v-6.054Zm6.055 0H60.54v6.054h6.054v-6.054Zm6.054 0h-6.054v6.054h6.054v-6.054Zm6.054 0h-6.054v6.054h6.054v-6.054Zm12.107 0h-6.053v6.054h6.054v-6.054Z"/>
  <path fill="#51C978" d="M96.865 78.703H90.81v6.054h6.054v-6.054Zm12.108 0h-6.054v6.054h6.054v-6.054Zm24.216 0h-6.054v6.054h6.054v-6.054Zm42.379 0h-6.054v6.054h6.054v-6.054Zm24.216 0h-6.054v6.054h6.054v-6.054Zm12.108 0h-6.054v6.054h6.054v-6.054Zm12.108 0h-6.054v6.054H224v-6.054ZM42.378 84.757h-6.054v6.054h6.054v-6.054Zm6.054 0h-6.054v6.054h6.054v-6.054Zm12.108 0h-6.053v6.054h6.053v-6.054Zm6.055 0H60.54v6.054h6.054v-6.054Zm36.324 0h-6.054v6.054h6.054v-6.054Zm6.054 0h-6.054v6.054h6.054v-6.054Zm6.054 0h-6.054v6.054h6.054v-6.054Zm30.27 0h-6.054v6.054h6.054v-6.054Zm18.162 0h-6.054v6.054h6.054v-6.054Zm6.055 0h-6.055v6.054h6.055v-6.054Zm6.054 0h-6.054v6.054h6.054v-6.054Zm6.054 0h-6.054v6.054h6.054v-6.054Z"/>
  <path fill="#51C978" d="M187.676 84.757h-6.054v6.054h6.054v-6.054Zm6.054 0h-6.054v6.054h6.054v-6.054Zm6.054 0h-6.054v6.054h6.054v-6.054Zm12.108 0h-6.054v6.054h6.054v-6.054Zm6.054 0h-6.054v6.054h6.054v-6.054ZM18.162 90.81h-6.054v6.055h6.054V90.81Zm42.378 0h-6.053v6.055h6.053V90.81Zm12.109 0h-6.054v6.055h6.054V90.81Zm6.054 0h-6.054v6.055h6.054V90.81Zm6.054 0h-6.054v6.055h6.054V90.81Zm6.053 0h-6.053v6.055h6.054V90.81Zm24.217 0h-6.054v6.055h6.054V90.81Zm6.054 0h-6.054v6.055h6.054V90.81Zm12.108 0h-6.054v6.055h6.054V90.81Zm6.054 0h-6.054v6.055h6.054V90.81Zm6.054 0h-6.054v6.055h6.054V90.81Zm6.054 0h-6.054v6.055h6.054V90.81Zm6.054 0h-6.054v6.055h6.054V90.81Zm6.054 0h-6.054v6.055h6.054V90.81Z"/>
  <path fill="#51C978" d="M187.676 90.81h-6.054v6.055h6.054V90.81Zm12.108 0h-6.054v6.055h6.054V90.81Zm6.054 0h-6.054v6.055h6.054V90.81Zm6.054 0h-6.054v6.055h6.054V90.81Zm12.108 0h-6.054v6.055H224V90.81ZM12.108 96.865H6.054v6.054h6.054v-6.054Zm12.108 0h-6.054v6.054h6.054v-6.054Zm6.054 0h-6.054v6.054h6.054v-6.054Zm12.108 0h-6.054v6.054h6.054v-6.054Zm6.054 0h-6.054v6.054h6.054v-6.054Zm12.108 0h-6.053v6.054h6.053v-6.054Zm6.055 0H60.54v6.054h6.054v-6.054Zm18.162 0h-6.054v6.054h6.054v-6.054Zm6.053 0h-6.053v6.054h6.054v-6.054Zm12.109 0h-6.054v6.054h6.054v-6.054Zm12.108 0h-6.054v6.054h6.054v-6.054Zm18.162 0h-6.054v6.054h6.054v-6.054Zm6.054 0h-6.054v6.054h6.054v-6.054Z"/>
  <path fill="#51C978" d="M205.838 96.865h-6.054v6.054h6.054v-6.054ZM6.054 102.919H0v6.054h6.054v-6.054Zm12.108 0h-6.054v6.054h6.054v-6.054Zm6.054 0h-6.054v6.054h6.054v-6.054Zm12.108 0H30.27v6.054h6.054v-6.054Zm12.108 0h-6.054v6.054h6.054v-6.054Z"/>
  <path fill="#51C978" d="M54.486 102.919h-6.054v6.054h6.054v-6.054Zm6.054 0h-6.053v6.054h6.053v-6.054Zm6.055 0H60.54v6.054h6.054v-6.054Zm18.162 0h-6.054v6.054h6.054v-6.054Zm12.108 0H90.81v6.054h6.054v-6.054Zm30.27 0h-6.054v6.054h6.054v-6.054Z"/>
  <path fill="#51C978" d="M133.189 102.919h-6.054v6.054h6.054v-6.054Zm6.054 0h-6.054v6.054h6.054v-6.054Zm12.108 0h-6.054v6.054h6.054v-6.054Zm18.163 0h-6.055v6.054h6.055v-6.054Zm18.162 0h-6.054v6.054h6.054v-6.054Zm6.054 0h-6.054v6.054h6.054v-6.054Zm24.216 0h-6.054v6.054h6.054v-6.054Zm6.054 0h-6.054v6.054H224v-6.054ZM6.054 108.973H0v6.054h6.054v-6.054Zm6.054 0H6.054v6.054h6.054v-6.054Z"/>
  <path fill="#51C978" d="M18.162 108.973h-6.054v6.054h6.054v-6.054Zm6.054 0h-6.054v6.054h6.054v-6.054Zm6.054 0h-6.054v6.054h6.054v-6.054Z"/>
  <path fill="#51C978" d="M36.324 108.973H30.27v6.054h6.054v-6.054Zm6.054 0h-6.054v6.054h6.054v-6.054Zm6.054 0h-6.054v6.054h6.054v-6.054Z"/>
  <path fill="#51C978" d="M54.486 108.973h-6.054v6.054h6.054v-6.054Zm6.054 0h-6.053v6.054h6.053v-6.054Zm12.109 0h-6.054v6.054h6.054v-6.054Zm6.054 0h-6.054v6.054h6.054v-6.054Zm6.054 0h-6.054v6.054h6.054v-6.054Zm24.216 0h-6.054v6.054h6.054v-6.054Zm18.162 0h-6.054v6.054h6.054v-6.054Z"/>
  <path fill="#51C978" d="M133.189 108.973h-6.054v6.054h6.054v-6.054Zm6.054 0h-6.054v6.054h6.054v-6.054Zm12.108 0h-6.054v6.054h6.054v-6.054Zm6.054 0h-6.054v6.054h6.054v-6.054Zm6.054 0h-6.054v6.054h6.054v-6.054Zm24.217 0h-6.054v6.054h6.054v-6.054Zm6.054 0h-6.054v6.054h6.054v-6.054Zm6.054 0h-6.054v6.054h6.054v-6.054Zm12.108 0h-6.054v6.054h6.054v-6.054Zm6.054 0h-6.054v6.054h6.054v-6.054Zm-199.784 6.054h-6.054v6.054h6.054v-6.054Zm6.054 0h-6.054v6.054h6.054v-6.054Zm12.108 0H30.27v6.054h6.054v-6.054Zm30.271 0H60.54v6.054h6.054v-6.054Zm24.215 0h-6.053v6.054h6.054v-6.054Zm18.163 0h-6.054v6.054h6.054v-6.054Zm12.108 0h-6.054v6.054h6.054v-6.054Zm6.054 0h-6.054v6.054h6.054v-6.054Zm30.27 0h-6.054v6.054h6.054v-6.054Zm6.054 0h-6.054v6.054h6.054v-6.054Zm18.163 0h-6.054v6.054h6.054v-6.054Zm18.162 0h-6.054v6.054h6.054v-6.054Zm12.108 0h-6.054v6.054h6.054v-6.054Zm12.108 0h-6.054v6.054H224v-6.054ZM6.054 121.081H0v6.054h6.054v-6.054Zm12.108 0h-6.054v6.054h6.054v-6.054Zm24.216 0h-6.054v6.054h6.054v-6.054Zm6.054 0h-6.054v6.054h6.054v-6.054Zm12.108 0h-6.053v6.054h6.053v-6.054Zm78.703 0h-6.054v6.054h6.054v-6.054Zm18.162 0h-6.054v6.054h6.054v-6.054Zm6.054 0h-6.054v6.054h6.054v-6.054Zm12.109 0h-6.054v6.054h6.054v-6.054Zm18.162 0h-6.054v6.054h6.054v-6.054Zm12.108 0h-6.054v6.054h6.054v-6.054Zm6.054 0h-6.054v6.054h6.054v-6.054Zm6.054 0h-6.054v6.054h6.054v-6.054Z"/>
  <path fill="#51C978" d="M12.108 127.135H6.054v6.054h6.054v-6.054Zm42.378 0h-6.054v6.054h6.054v-6.054Zm6.054 0h-6.053v6.054h6.053v-6.054Zm24.217 0h-6.054v6.054h6.054v-6.054Zm6.053 0h-6.053v6.054h6.054v-6.054Zm36.325 0h-6.054v6.054h6.054v-6.054Z"/>
  <path fill="#51C978" d="M133.189 127.135h-6.054v6.054h6.054v-6.054Zm6.054 0h-6.054v6.054h6.054v-6.054Zm24.216 0h-6.054v6.054h6.054v-6.054Zm6.055 0h-6.055v6.054h6.055v-6.054Zm6.054 0h-6.054v6.054h6.054v-6.054Zm12.108 0h-6.054v6.054h6.054v-6.054Zm18.162 0h-6.054v6.054h6.054v-6.054ZM6.054 133.189H0v6.054h6.054v-6.054Zm18.162 0h-6.054v6.054h6.054v-6.054Zm6.054 0h-6.054v6.054h6.054v-6.054Zm12.108 0h-6.054v6.054h6.054v-6.054Zm6.054 0h-6.054v6.054h6.054v-6.054Zm18.163 0H60.54v6.054h6.054v-6.054Zm12.108 0h-6.054v6.054h6.054v-6.054Zm6.054 0h-6.054v6.054h6.054v-6.054Zm18.162 0h-6.054v6.054h6.054v-6.054Zm6.054 0h-6.054v6.054h6.054v-6.054Zm6.054 0h-6.054v6.054h6.054v-6.054Zm6.054 0h-6.054v6.054h6.054v-6.054Zm24.216 0h-6.054v6.054h6.054v-6.054Zm18.162 0h-6.054v6.054h6.054v-6.054Zm6.055 0h-6.055v6.054h6.055v-6.054Zm6.054 0h-6.054v6.054h6.054v-6.054Zm18.162 0h-6.054v6.054h6.054v-6.054Zm6.054 0h-6.054v6.054h6.054v-6.054Zm6.054 0h-6.054v6.054h6.054v-6.054Zm6.054 0h-6.054v6.054h6.054v-6.054Zm6.054 0h-6.054v6.054h6.054v-6.054Zm-205.838 6.054H6.054v6.054h6.054v-6.054Zm36.324 0h-6.054v6.054h6.054v-6.054Zm12.108 0h-6.053v6.054h6.053v-6.054Zm6.055 0H60.54v6.054h6.054v-6.054Zm12.108 0h-6.054v6.054h6.054v-6.054Zm18.162 0H90.81v6.054h6.054v-6.054Zm6.054 0h-6.054v6.054h6.054v-6.054Zm12.108 0h-6.054v6.054h6.054v-6.054Zm12.108 0h-6.054v6.054h6.054v-6.054Z"/>
  <path fill="#51C978" d="M133.189 139.243h-6.054v6.054h6.054v-6.054Zm6.054 0h-6.054v6.054h6.054v-6.054Zm36.325 0h-6.054v6.054h6.054v-6.054Zm6.054 0h-6.054v6.054h6.054v-6.054Zm12.108 0h-6.054v6.054h6.054v-6.054Zm18.162 0h-6.054v6.054h6.054v-6.054ZM6.054 145.297H0v6.054h6.054v-6.054Zm6.054 0H6.054v6.054h6.054v-6.054Zm12.108 0h-6.054v6.054h6.054v-6.054Zm6.054 0h-6.054v6.054h6.054v-6.054Z"/>
  <path fill="#51C978" d="M36.324 145.297H30.27v6.054h6.054v-6.054Zm6.054 0h-6.054v6.054h6.054v-6.054Zm6.054 0h-6.054v6.054h6.054v-6.054Z"/>
  <path fill="#51C978" d="M54.486 145.297h-6.054v6.054h6.054v-6.054Zm24.217 0h-6.054v6.054h6.054v-6.054Zm6.054 0h-6.054v6.054h6.054v-6.054Zm12.108 0H90.81v6.054h6.054v-6.054Zm12.108 0h-6.054v6.054h6.054v-6.054Zm6.054 0h-6.054v6.054h6.054v-6.054Zm6.054 0h-6.054v6.054h6.054v-6.054Zm6.054 0h-6.054v6.054h6.054v-6.054Zm12.108 0h-6.054v6.054h6.054v-6.054Zm12.108 0h-6.054v6.054h6.054v-6.054Zm6.054 0h-6.054v6.054h6.054v-6.054Zm18.163 0h-6.054v6.054h6.054v-6.054Zm6.054 0h-6.054v6.054h6.054v-6.054Zm18.162 0h-6.054v6.054h6.054v-6.054Zm6.054 0h-6.054v6.054h6.054v-6.054Zm6.054 0h-6.054v6.054h6.054v-6.054ZM6.054 151.351H0v6.054h6.054v-6.054Zm12.108 0h-6.054v6.054h6.054v-6.054Zm12.108 0h-6.054v6.054h6.054v-6.054Zm24.216 0h-6.054v6.054h6.054v-6.054Zm6.054 0h-6.053v6.054h6.053v-6.054Zm6.055 0H60.54v6.054h6.054v-6.054Zm6.054 0h-6.054v6.054h6.054v-6.054Zm6.054 0h-6.054v6.054h6.054v-6.054Zm24.216 0h-6.054v6.054h6.054v-6.054Zm6.054 0h-6.054v6.054h6.054v-6.054Zm6.054 0h-6.054v6.054h6.054v-6.054Zm18.162 0h-6.054v6.054h6.054v-6.054Zm6.054 0h-6.054v6.054h6.054v-6.054Zm18.162 0h-6.054v6.054h6.054v-6.054Zm6.054 0h-6.054v6.054h6.054v-6.054Zm12.109 0h-6.054v6.054h6.054v-6.054Zm42.378 0h-6.054v6.054h6.054v-6.054Zm6.054 0h-6.054v6.054H224v-6.054Zm-205.838 6.054h-6.054v6.054h6.054v-6.054Zm6.054 0h-6.054v6.054h6.054v-6.054Zm12.108 0H30.27v6.054h6.054v-6.054Zm6.054 0h-6.054v6.054h6.054v-6.054Zm30.271 0h-6.054v6.054h6.054v-6.054Zm6.054 0h-6.054v6.054h6.054v-6.054Zm6.054 0h-6.054v6.054h6.054v-6.054Zm6.053 0h-6.053v6.054h6.054v-6.054Z"/>
  <path fill="#51C978" d="M96.865 157.405H90.81v6.054h6.054v-6.054Zm24.216 0h-6.054v6.054h6.054v-6.054Zm6.054 0h-6.054v6.054h6.054v-6.054Zm24.216 0h-6.054v6.054h6.054v-6.054Zm6.054 0h-6.054v6.054h6.054v-6.054Zm6.054 0h-6.054v6.054h6.054v-6.054Zm6.055 0h-6.055v6.054h6.055v-6.054Zm30.27 0h-6.054v6.054h6.054v-6.054Zm6.054 0h-6.054v6.054h6.054v-6.054Zm12.108 0h-6.054v6.054h6.054v-6.054Zm6.054 0h-6.054v6.054H224v-6.054Zm-205.838 6.054h-6.054v6.055h6.054v-6.055Zm12.108 0h-6.054v6.055h6.054v-6.055Zm18.162 0h-6.054v6.055h6.054v-6.055Z"/>
  <path fill="#51C978" d="M54.486 163.459h-6.054v6.055h6.054v-6.055Zm18.163 0h-6.054v6.055h6.054v-6.055Zm6.054 0h-6.054v6.055h6.054v-6.055Zm6.054 0h-6.054v6.055h6.054v-6.055Zm24.216 0h-6.054v6.055h6.054v-6.055Zm6.054 0h-6.054v6.055h6.054v-6.055Zm30.27 0h-6.054v6.055h6.054v-6.055Zm12.108 0h-6.054v6.055h6.054v-6.055Zm12.109 0h-6.055v6.055h6.055v-6.055Zm24.216 0h-6.054v6.055h6.054v-6.055Zm12.108 0h-6.054v6.055h6.054v-6.055Zm6.054 0h-6.054v6.055h6.054v-6.055ZM6.054 169.514H0v6.054h6.054v-6.054Zm36.324 0h-6.054v6.054h6.054v-6.054Zm6.054 0h-6.054v6.054h6.054v-6.054Z"/>
  <path fill="#51C978" d="M54.486 169.514h-6.054v6.054h6.054v-6.054Zm18.163 0h-6.054v6.054h6.054v-6.054Zm24.216 0H90.81v6.054h6.054v-6.054Zm12.108 0h-6.054v6.054h6.054v-6.054Zm12.108 0h-6.054v6.054h6.054v-6.054Zm6.054 0h-6.054v6.054h6.054v-6.054Zm18.162 0h-6.054v6.054h6.054v-6.054Zm6.054 0h-6.054v6.054h6.054v-6.054Zm6.054 0h-6.054v6.054h6.054v-6.054Zm12.109 0h-6.055v6.054h6.055v-6.054Zm6.054 0h-6.054v6.054h6.054v-6.054Zm6.054 0h-6.054v6.054h6.054v-6.054Z"/>
  <path fill="#51C978" d="M187.676 169.514h-6.054v6.054h6.054v-6.054Zm6.054 0h-6.054v6.054h6.054v-6.054Zm6.054 0h-6.054v6.054h6.054v-6.054Zm6.054 0h-6.054v6.054h6.054v-6.054Zm6.054 0h-6.054v6.054h6.054v-6.054Zm-145.297 6.054H60.54v6.054h6.054v-6.054Zm12.108 0h-6.054v6.054h6.054v-6.054Zm18.162 0H90.81v6.054h6.054v-6.054Zm12.108 0h-6.054v6.054h6.054v-6.054Zm6.054 0h-6.054v6.054h6.054v-6.054Zm12.108 0h-6.054v6.054h6.054v-6.054Zm18.162 0h-6.054v6.054h6.054v-6.054Zm6.054 0h-6.054v6.054h6.054v-6.054Zm6.054 0h-6.054v6.054h6.054v-6.054Zm12.109 0h-6.055v6.054h6.055v-6.054Zm6.054 0h-6.054v6.054h6.054v-6.054Zm24.216 0h-6.054v6.054h6.054v-6.054Zm-193.73 6.054H0v6.054h6.054v-6.054Zm6.054 0H6.054v6.054h6.054v-6.054Z"/>
  <path fill="#51C978" d="M18.162 181.622h-6.054v6.054h6.054v-6.054Zm6.054 0h-6.054v6.054h6.054v-6.054Zm6.054 0h-6.054v6.054h6.054v-6.054Z"/>
  <path fill="#51C978" d="M36.324 181.622H30.27v6.054h6.054v-6.054Zm6.054 0h-6.054v6.054h6.054v-6.054Zm36.325 0h-6.054v6.054h6.054v-6.054Zm6.054 0h-6.054v6.054h6.054v-6.054Zm12.108 0H90.81v6.054h6.054v-6.054Zm12.108 0h-6.054v6.054h6.054v-6.054Zm12.108 0h-6.054v6.054h6.054v-6.054Zm24.216 0h-6.054v6.054h6.054v-6.054Zm6.054 0h-6.054v6.054h6.054v-6.054Zm6.054 0h-6.054v6.054h6.054v-6.054Zm18.163 0h-6.054v6.054h6.054v-6.054Zm12.108 0h-6.054v6.054h6.054v-6.054Zm12.108 0h-6.054v6.054h6.054v-6.054Zm6.054 0h-6.054v6.054h6.054v-6.054Zm6.054 0h-6.054v6.054h6.054v-6.054ZM6.054 187.676H0v6.054h6.054v-6.054Z"/>
  <path fill="#51C978" d="M42.378 187.676h-6.054v6.054h6.054v-6.054Zm18.162 0h-6.053v6.054h6.053v-6.054Zm6.055 0H60.54v6.054h6.054v-6.054Zm6.054 0h-6.054v6.054h6.054v-6.054Zm12.108 0h-6.054v6.054h6.054v-6.054Zm30.27 0h-6.054v6.054h6.054v-6.054Zm6.054 0h-6.054v6.054h6.054v-6.054Zm12.108 0h-6.054v6.054h6.054v-6.054Zm24.216 0h-6.054v6.054h6.054v-6.054Zm6.054 0h-6.054v6.054h6.054v-6.054Zm6.055 0h-6.055v6.054h6.055v-6.054Zm6.054 0h-6.054v6.054h6.054v-6.054Zm24.216 0h-6.054v6.054h6.054v-6.054Zm6.054 0h-6.054v6.054h6.054v-6.054Zm6.054 0h-6.054v6.054h6.054v-6.054Zm12.108 0h-6.054v6.054H224v-6.054ZM6.054 193.73H0v6.054h6.054v-6.054Zm12.108 0h-6.054v6.054h6.054v-6.054Zm6.054 0h-6.054v6.054h6.054v-6.054Zm6.054 0h-6.054v6.054h6.054v-6.054Zm12.108 0h-6.054v6.054h6.054v-6.054Zm24.217 0H60.54v6.054h6.054v-6.054Zm12.108 0h-6.054v6.054h6.054v-6.054Zm6.054 0h-6.054v6.054h6.054v-6.054Zm6.053 0h-6.053v6.054h6.054v-6.054Zm24.217 0h-6.054v6.054h6.054v-6.054Zm6.054 0h-6.054v6.054h6.054v-6.054Zm6.054 0h-6.054v6.054h6.054v-6.054Zm12.108 0h-6.054v6.054h6.054v-6.054Zm12.108 0h-6.054v6.054h6.054v-6.054Zm6.054 0h-6.054v6.054h6.054v-6.054Zm6.054 0h-6.054v6.054h6.054v-6.054Zm6.055 0h-6.055v6.054h6.055v-6.054Zm6.054 0h-6.054v6.054h6.054v-6.054Zm6.054 0h-6.054v6.054h6.054v-6.054Z"/>
  <path fill="#51C978" d="M187.676 193.73h-6.054v6.054h6.054v-6.054Zm6.054 0h-6.054v6.054h6.054v-6.054Zm6.054 0h-6.054v6.054h6.054v-6.054Zm12.108 0h-6.054v6.054h6.054v-6.054Zm6.054 0h-6.054v6.054h6.054v-6.054Zm6.054 0h-6.054v6.054H224v-6.054ZM6.054 199.784H0v6.054h6.054v-6.054Zm12.108 0h-6.054v6.054h6.054v-6.054Zm6.054 0h-6.054v6.054h6.054v-6.054Zm6.054 0h-6.054v6.054h6.054v-6.054Zm12.108 0h-6.054v6.054h6.054v-6.054Zm24.217 0H60.54v6.054h6.054v-6.054Zm6.054 0h-6.054v6.054h6.054v-6.054Zm6.054 0h-6.054v6.054h6.054v-6.054Zm24.216 0h-6.054v6.054h6.054v-6.054Zm6.054 0h-6.054v6.054h6.054v-6.054Zm12.108 0h-6.054v6.054h6.054v-6.054Zm6.054 0h-6.054v6.054h6.054v-6.054Zm12.108 0h-6.054v6.054h6.054v-6.054Zm12.108 0h-6.054v6.054h6.054v-6.054Zm12.108 0h-6.054v6.054h6.054v-6.054Zm18.163 0h-6.054v6.054h6.054v-6.054Z"/>
  <path fill="#51C978" d="M187.676 199.784h-6.054v6.054h6.054v-6.054Zm6.054 0h-6.054v6.054h6.054v-6.054Zm6.054 0h-6.054v6.054h6.054v-6.054Zm6.054 0h-6.054v6.054h6.054v-6.054Zm6.054 0h-6.054v6.054h6.054v-6.054Zm6.054 0h-6.054v6.054h6.054v-6.054Zm6.054 0h-6.054v6.054H224v-6.054ZM6.054 205.838H0v6.054h6.054v-6.054Zm12.108 0h-6.054v6.054h6.054v-6.054Zm6.054 0h-6.054v6.054h6.054v-6.054Zm6.054 0h-6.054v6.054h6.054v-6.054Zm12.108 0h-6.054v6.054h6.054v-6.054Zm12.108 0h-6.054v6.054h6.054v-6.054Zm6.054 0h-6.053v6.054h6.053v-6.054Zm12.109 0h-6.054v6.054h6.054v-6.054Zm6.054 0h-6.054v6.054h6.054v-6.054Zm6.054 0h-6.054v6.054h6.054v-6.054Zm6.053 0h-6.053v6.054h6.054v-6.054Zm12.109 0h-6.054v6.054h6.054v-6.054Zm6.054 0h-6.054v6.054h6.054v-6.054Zm6.054 0h-6.054v6.054h6.054v-6.054Zm18.162 0h-6.054v6.054h6.054v-6.054Zm6.054 0h-6.054v6.054h6.054v-6.054Zm6.054 0h-6.054v6.054h6.054v-6.054Zm6.054 0h-6.054v6.054h6.054v-6.054Zm12.108 0h-6.054v6.054h6.054v-6.054Zm12.109 0h-6.054v6.054h6.054v-6.054Zm6.054 0h-6.054v6.054h6.054v-6.054Zm30.27 0h-6.054v6.054h6.054v-6.054Zm6.054 0h-6.054v6.054h6.054v-6.054Zm6.054 0h-6.054v6.054H224v-6.054ZM6.054 211.892H0v6.054h6.054v-6.054Zm36.324 0h-6.054v6.054h6.054v-6.054Zm12.108 0h-6.054v6.054h6.054v-6.054Zm18.163 0h-6.054v6.054h6.054v-6.054Zm12.108 0h-6.054v6.054h6.054v-6.054Zm6.053 0h-6.053v6.054h6.054v-6.054Zm24.217 0h-6.054v6.054h6.054v-6.054Zm12.108 0h-6.054v6.054h6.054v-6.054Zm18.162 0h-6.054v6.054h6.054v-6.054Zm6.054 0h-6.054v6.054h6.054v-6.054Zm6.054 0h-6.054v6.054h6.054v-6.054Zm6.054 0h-6.054v6.054h6.054v-6.054Zm24.217 0h-6.054v6.054h6.054v-6.054Zm18.162 0h-6.054v6.054h6.054v-6.054Zm6.054 0h-6.054v6.054h6.054v-6.054Zm12.108 0h-6.054v6.054H224v-6.054ZM6.054 217.946H0V224h6.054v-6.054Zm6.054 0H6.054V224h6.054v-6.054Z"/>
  <path fill="#51C978" d="M18.162 217.946h-6.054V224h6.054v-6.054Zm6.054 0h-6.054V224h6.054v-6.054Zm6.054 0h-6.054V224h6.054v-6.054Z"/>
  <path fill="#51C978" d="M36.324 217.946H30.27V224h6.054v-6.054Zm6.054 0h-6.054V224h6.054v-6.054Zm42.379 0h-6.054V224h6.054v-6.054Zm18.162 0h-6.054V224h6.054v-6.054Zm6.054 0h-6.054V224h6.054v-6.054Zm6.054 0h-6.054V224h6.054v-6.054Zm18.162 0h-6.054V224h6.054v-6.054Zm24.216 0h-6.054V224h6.054v-6.054Zm18.163 0h-6.054V224h6.054v-6.054Zm6.054 0h-6.054V224h6.054v-6.054Z"/>
  <path fill="#51C978" d="M187.676 217.946h-6.054V224h6.054v-6.054Zm36.324 0h-6.054V224H224v-6.054Z"/>
</svg>
